<?xml version="1.0" encoding="UTF-8"?>
<svg width="48px" height="48px" version="1.1" viewBox="0 0 700 700" xmlns="http://www.w3.org/2000/svg" fill="#fff">
 <path d="m350 75.832c9.6641 0 17.5 7.8359 17.5 17.5v35c0 9.668-7.8359 17.5-17.5 17.5s-17.5-7.832-17.5-17.5v-35c0-9.6641 7.8359-17.5 17.5-17.5zm0 128.34c-41.883 0-75.832 33.949-75.832 75.832s33.949 75.832 75.832 75.832 75.832-33.949 75.832-75.832-33.949-75.832-75.832-75.832zm-110.83 75.832c0-61.211 49.621-110.83 110.83-110.83s110.83 49.621 110.83 110.83-49.621 110.83-110.83 110.83-110.83-49.621-110.83-110.83zm128.33 151.67c0-9.6641-7.8359-17.5-17.5-17.5s-17.5 7.8359-17.5 17.5v35c0 9.6641 7.8359 17.5 17.5 17.5s17.5-7.8359 17.5-17.5zm-221.67-151.67c0-9.6641 7.8359-17.5 17.5-17.5h35c9.668 0 17.5 7.8359 17.5 17.5s-7.832 17.5-17.5 17.5h-35c-9.6641 0-17.5-7.8359-17.5-17.5zm355.84-17.5c-9.6641 0-17.5 7.8359-17.5 17.5s7.8359 17.5 17.5 17.5h35c9.6641 0 17.5-7.8359 17.5-17.5s-7.8359-17.5-17.5-17.5zm-296.04-126.87c6.832-6.8359 17.914-6.8359 24.75 0l24.746 24.75c6.8359 6.832 6.8359 17.914 0 24.746-6.832 6.8359-17.914 6.8359-24.746 0l-24.75-24.746c-6.8359-6.8359-6.8359-17.918 0-24.75zm263.98 239.24c-6.832-6.8359-17.91-6.8359-24.746 0-6.8359 6.8359-6.8359 17.914 0 24.746l24.746 24.75c6.8359 6.8359 17.918 6.8359 24.75 0 6.8359-6.832 6.8359-17.914 0-24.75zm-263.98 49.496c-6.8359-6.832-6.8359-17.914 0-24.75l24.75-24.746c6.832-6.8359 17.914-6.8359 24.746 0 6.8359 6.8359 6.8359 17.914 0 24.746l-24.746 24.75c-6.8359 6.8359-17.918 6.8359-24.75 0zm239.24-263.98c-6.8359 6.832-6.8359 17.914 0 24.746 6.8359 6.8359 17.914 6.8359 24.746 0l24.75-24.746c6.8359-6.8359 6.8359-17.914 0-24.75-6.832-6.8359-17.914-6.8359-24.75 0z" fill-rule="evenodd"/>
</svg>
