<?xml version="1.0" encoding="UTF-8"?>
<svg width="48px" height="48px" version="1.1" viewBox="0 0 700 700" xmlns="http://www.w3.org/2000/svg" xmlns:xlink="http://www.w3.org/1999/xlink">
 <g>
  <path d="m525.56 329.05c-12.227 42.957-40.051 79.801-78.027 103.31-37.973 23.512-83.359 31.992-127.26 23.785-43.898-8.2109-83.156-32.516-110.07-68.156-26.914-35.645-39.551-80.051-35.43-124.52 4.1211-44.473 24.699-85.805 57.703-115.89 33.004-30.09 76.059-46.77 120.72-46.773 3.8633 0 7.9531 0 12.77 0.50391 4.2734 0.28125 8.0117 2.9766 9.6328 6.9414 1.6055 3.9766 0.80078 8.5234-2.0742 11.707-24.848 27.695-35.777 65.172-29.711 101.88 6.0625 36.707 28.461 68.68 60.895 86.914s71.391 20.762 105.91 6.8672c3.9609-1.5938 8.4844-0.79297 11.66 2.0625 3.1758 2.8555 4.4531 7.2656 3.2891 11.375z"/>
 </g>
</svg>
